<svg class="animated" id="freepik_stories-accept-request" xmlns="http://www.w3.org/2000/svg" viewBox="0 0 500 500" version="1.1" xmlns:xlink="http://www.w3.org/1999/xlink" xmlns:svgjs="http://svgjs.com/svgjs"><style>svg#freepik_stories-accept-request:not(.animated) .animable {opacity: 0;}svg#freepik_stories-accept-request.animated #freepik--background-complete--inject-362 {animation: 6s Infinite  linear wind;animation-delay: 0s;}svg#freepik_stories-accept-request.animated #freepik--speech-bubble--inject-362 {animation: 0.7s 1 forwards cubic-bezier(.36,-0.01,.5,1.38) zoomIn,1.5s Infinite  linear heartbeat;animation-delay: 0s,0.7s;}svg#freepik_stories-accept-request.animated #freepik--Icon--inject-362 {animation: 1s 1 forwards ease-out zoomIn,1.5s Infinite  linear floating;animation-delay: 0s,1s;}svg#freepik_stories-accept-request.animated #freepik--character-2--inject-362 {animation: 1s 1 forwards cubic-bezier(.36,-0.01,.5,1.38) lightSpeedRight,1.5s Infinite  linear wind;animation-delay: 0s,1s;}svg#freepik_stories-accept-request.animated #freepik--character-1--inject-362 {animation: 1s 1 forwards cubic-bezier(.36,-0.01,.5,1.38) fadeIn,6s Infinite  linear wind;animation-delay: 0s,1s;}            @keyframes wind {                0% {                    transform: rotate( 0deg );                }                25% {                    transform: rotate( 1deg );                }                75% {                    transform: rotate( -1deg );                }            }                    @keyframes zoomIn {                0% {                    opacity: 0;                    transform: scale(0.5);                }                100% {                    opacity: 1;                    transform: scale(1);                }            }                    @keyframes heartbeat {                0% {                    transform: scale(1);                }                10% {                    transform: scale(1.1);                }                30% {                    transform: scale(1);                }                40% {                    transform: scale(1);                }                50% {                    transform: scale(1.1);                }                60% {                    transform: scale(1);                }                100% {                    transform: scale(1);                }            }                    @keyframes floating {                0% {                    opacity: 1;                    transform: translateY(0px);                }                50% {                    transform: translateY(-10px);                }                100% {                    opacity: 1;                    transform: translateY(0px);                }            }                    @keyframes lightSpeedRight {              from {                transform: translate3d(50%, 0, 0) skewX(-20deg);                opacity: 0;              }              60% {                transform: skewX(10deg);                opacity: 1;              }              80% {                transform: skewX(-2deg);              }              to {                opacity: 1;                transform: translate3d(0, 0, 0);              }            }                    @keyframes fadeIn {                0% {                    opacity: 0;                }                100% {                    opacity: 1;                }            }        </style><g id="freepik--background-complete--inject-362" class="animable" style="transform-origin: 250px 228.23px;"><rect y="382.4" width="500" height="0.25" style="fill: rgb(235, 235, 235); transform-origin: 250px 382.525px;" id="el6xbsyisfyl" class="animable"></rect><rect x="416.78" y="398.49" width="33.12" height="0.25" style="fill: rgb(235, 235, 235); transform-origin: 433.34px 398.615px;" id="el9789spk5d0g" class="animable"></rect><rect x="322.53" y="401.21" width="8.69" height="0.25" style="fill: rgb(235, 235, 235); transform-origin: 326.875px 401.335px;" id="elriokg65ql9j" class="animable"></rect><rect x="396.59" y="389.21" width="19.19" height="0.25" style="fill: rgb(235, 235, 235); transform-origin: 406.185px 389.335px;" id="el0q9yprklp9q" class="animable"></rect><rect x="52.46" y="390.89" width="43.19" height="0.25" style="fill: rgb(235, 235, 235); transform-origin: 74.055px 391.015px;" id="elyo8etdp7vei" class="animable"></rect><rect x="104.56" y="390.89" width="6.33" height="0.25" style="fill: rgb(235, 235, 235); transform-origin: 107.725px 391.015px;" id="el0w31hoa67cli" class="animable"></rect><rect x="131.47" y="395.11" width="93.68" height="0.25" style="fill: rgb(235, 235, 235); transform-origin: 178.31px 395.235px;" id="el5w5c2m7anpm" class="animable"></rect><path d="M237,337.8H43.91a5.71,5.71,0,0,1-5.7-5.71V60.66A5.71,5.71,0,0,1,43.91,55H237a5.71,5.71,0,0,1,5.71,5.71V332.09A5.71,5.71,0,0,1,237,337.8ZM43.91,55.2a5.46,5.46,0,0,0-5.45,5.46V332.09a5.46,5.46,0,0,0,5.45,5.46H237a5.47,5.47,0,0,0,5.46-5.46V60.66A5.47,5.47,0,0,0,237,55.2Z" style="fill: rgb(235, 235, 235); transform-origin: 140.46px 196.4px;" id="el60l1lbc5w5w" class="animable"></path><path d="M453.31,337.8H260.21a5.72,5.72,0,0,1-5.71-5.71V60.66A5.72,5.72,0,0,1,260.21,55h193.1A5.71,5.71,0,0,1,459,60.66V332.09A5.71,5.71,0,0,1,453.31,337.8ZM260.21,55.2a5.47,5.47,0,0,0-5.46,5.46V332.09a5.47,5.47,0,0,0,5.46,5.46h193.1a5.47,5.47,0,0,0,5.46-5.46V60.66a5.47,5.47,0,0,0-5.46-5.46Z" style="fill: rgb(235, 235, 235); transform-origin: 356.75px 196.4px;" id="elvrg5l73v4s" class="animable"></path><polygon points="460.43 378.48 460.43 311.99 428.41 311.99 428.41 293.82 413.08 293.82 413.08 240.39 393.27 220.58 353.08 220.58 353.08 277.83 297.93 277.83 297.93 289.15 258.93 289.15 258.93 274.29 217.04 274.29 217.04 263.09 184.33 263.09 184.33 196.76 126.43 196.76 126.43 239.03 113.1 239.03 113.1 254.34 82.11 254.34 82.11 279.44 65.55 279.44 52.8 292.19 52.8 305.15 40.12 305.15 40.12 378.48 460.43 378.48" style="fill: rgb(240, 240, 240); transform-origin: 250.275px 287.62px;" id="elo884frbt2zd" class="animable"></polygon><polygon points="421.43 311.99 427.86 311.99 428.41 311.62 428.41 311.99 460.43 311.99 460.43 378.48 421.43 378.48 421.43 311.99" style="fill: rgb(230, 230, 230); transform-origin: 440.93px 345.05px;" id="eliglufpcu3co" class="animable"></polygon><polygon points="354.03 293.43 360.46 293.43 361.01 292.95 361.01 293.43 393.04 293.43 393.04 378.48 354.03 378.48 354.03 293.43" style="fill: rgb(230, 230, 230); transform-origin: 373.535px 335.715px;" id="elrjlu1lkc3p" class="animable"></polygon><polygon points="258.38 279.12 258.38 289.15 259.96 289.15 261.64 299.87 256.89 378.48 204.06 378.48 204.06 274.29 216.49 274.29 257.62 274.29 258.38 279.12" style="fill: rgb(230, 230, 230); transform-origin: 232.85px 326.385px;" id="elqc5lcbofcn" class="animable"></polygon><polygon points="135.39 254.34 135.39 378.48 39.57 378.48 39.57 305.15 52.25 305.68 52.25 279.47 65 279.44 81.56 279.44 81.56 254.34 109.68 254.34 112.54 254.34 135.39 254.34" style="fill: rgb(230, 230, 230); transform-origin: 87.48px 316.41px;" id="elzr6mthm580e" class="animable"></polygon><g id="el94vwchfy7de"><rect x="64.94" y="286.18" width="5.79" height="5.79" style="fill: rgb(255, 255, 255); transform-origin: 67.835px 289.075px; transform: rotate(180deg);" class="animable" id="elwa346oqlxk"></rect></g><g id="elrp86kk0p99s"><rect x="75.17" y="286.18" width="5.79" height="5.79" style="fill: rgb(255, 255, 255); transform-origin: 78.065px 289.075px; transform: rotate(180deg);" class="animable" id="el7bu671b4zbj"></rect></g><g id="elkqqgxxl2ew8"><rect x="64.94" y="296.97" width="5.79" height="5.79" style="fill: rgb(255, 255, 255); transform-origin: 67.835px 299.865px; transform: rotate(180deg);" class="animable" id="el78y2t5e2gfh"></rect></g><g id="elvyck1do1v6"><rect x="75.17" y="296.97" width="5.79" height="5.79" style="fill: rgb(255, 255, 255); transform-origin: 78.065px 299.865px; transform: rotate(180deg);" class="animable" id="elv32g56zagu"></rect></g><g id="eld9s8fdzbzgs"><rect x="96.56" y="259.01" width="5.79" height="5.79" style="fill: rgb(255, 255, 255); transform-origin: 99.455px 261.905px; transform: rotate(180deg);" class="animable" id="elkj5xjzu43ed"></rect></g><g id="elwhenmku15mb"><rect x="106.79" y="259.01" width="5.79" height="5.79" style="fill: rgb(255, 255, 255); transform-origin: 109.685px 261.905px; transform: rotate(180deg);" class="animable" id="ele5ss80kapo"></rect></g><g id="el8h45arycceo"><rect x="428.15" y="321.37" width="5.79" height="5.79" style="fill: rgb(255, 255, 255); transform-origin: 431.045px 324.265px; transform: rotate(180deg);" class="animable" id="elqp1kudtsde"></rect></g><g id="elwdpczo9y2ha"><rect x="438.38" y="321.37" width="5.79" height="5.79" style="fill: rgb(255, 255, 255); transform-origin: 441.275px 324.265px; transform: rotate(180deg);" class="animable" id="el5o3cilzo0he"></rect></g><g id="elj3w1zd349i"><rect x="210.73" y="291.3" width="5.79" height="5.79" style="fill: rgb(255, 255, 255); transform-origin: 213.625px 294.195px; transform: rotate(90deg);" class="animable" id="elg6drgqgto0j"></rect></g><g id="eluvp75cym26"><rect x="210.73" y="281.07" width="5.79" height="5.79" style="fill: rgb(255, 255, 255); transform-origin: 213.625px 283.965px; transform: rotate(90deg);" class="animable" id="el1z63p3jofhbj"></rect></g><g id="eljtiiq6iogxl"><rect x="114.21" y="286.18" width="5.79" height="5.79" style="fill: rgb(255, 255, 255); transform-origin: 117.105px 289.075px; transform: rotate(180deg);" class="animable" id="elkccxhuokrgr"></rect></g><g id="elzvbiov5kgwo"><rect x="124.44" y="286.18" width="5.79" height="5.79" style="fill: rgb(255, 255, 255); transform-origin: 127.335px 289.075px; transform: rotate(180deg);" class="animable" id="el19h9lguhdd3"></rect></g><g id="eld8pn9cprv0t"><rect x="390.14" y="244.24" width="5.79" height="5.79" style="fill: rgb(255, 255, 255); transform-origin: 393.035px 247.135px; transform: rotate(180deg);" class="animable" id="el2fnw1ph8il5"></rect></g><g id="elccctx6378l7"><rect x="400.37" y="244.24" width="5.79" height="5.79" style="fill: rgb(255, 255, 255); transform-origin: 403.265px 247.135px; transform: rotate(180deg);" class="animable" id="elihae6x99zd9"></rect></g><g id="el6gf5d41nryu"><rect x="400.37" y="255.03" width="5.79" height="5.79" style="fill: rgb(255, 255, 255); transform-origin: 403.265px 257.925px; transform: rotate(180deg);" class="animable" id="el9awki2zvys"></rect></g><path d="M448.22,204.07a11.53,11.53,0,0,0,.15-1.77A11.28,11.28,0,0,0,437.09,191a11.12,11.12,0,0,0-1.83.16,12.86,12.86,0,0,0-23.42,3.14,8.21,8.21,0,0,0-2.49-.38A8.36,8.36,0,0,0,401,202.3a8.64,8.64,0,0,0,.19,1.77Z" style="fill: rgb(240, 240, 240); transform-origin: 424.685px 194.487px;" id="el85rk1zvgkqe" class="animable"></path><path d="M91,223.12a8.7,8.7,0,0,0,.11-1.27,8.09,8.09,0,0,0-9.42-8,9.24,9.24,0,0,0-16.83,2.26,5.92,5.92,0,0,0-1.79-.27,6,6,0,0,0-6,6,5.88,5.88,0,0,0,.14,1.27Z" style="fill: rgb(240, 240, 240); transform-origin: 74.09px 216.236px;" id="elk6p3jwnfez" class="animable"></path><path d="M182.08,97.57a19,19,0,0,0,.26-3A19.39,19.39,0,0,0,163,75.14a19.19,19.19,0,0,0-3.14.28,22.11,22.11,0,0,0-40.26,5.39,14.37,14.37,0,0,0-18.64,13.72,14.52,14.52,0,0,0,.33,3Z" style="fill: rgb(240, 240, 240); transform-origin: 141.65px 81.1184px;" id="elga2g0z19kjj" class="animable"></path></g><g id="freepik--Shadow--inject-362" class="animable" style="transform-origin: 248.06px 416.24px;"><ellipse id="freepik--path--inject-362" cx="248.06" cy="416.24" rx="193.89" ry="11.32" style="fill: rgb(245, 245, 245); transform-origin: 248.06px 416.24px;" class="animable"></ellipse></g><g id="freepik--speech-bubble--inject-362" class="animable" style="transform-origin: 110.89px 147.165px;"><path d="M96.1,124.36h27.74a12.6,12.6,0,0,1,12.57,12.56v25.72H97.93a12.6,12.6,0,0,1-12.56-12.57v-15A10.73,10.73,0,0,1,96.1,124.36Z" style="fill: #00FF88; transform-origin: 110.89px 143.5px;" id="elmvs8mfs0goi" class="animable"></path><polygon points="136.41 158.97 136.41 169.97 124.91 158.47 136.41 158.97" style="fill: #00FF88; transform-origin: 130.66px 164.22px;" id="elc8v5xig5774" class="animable"></polygon><g id="el5ffv1nrtcm4"><g style="opacity: 0.6; transform-origin: 110.89px 147.165px;" class="animable" id="els5hgg3f9d4"><path d="M96.1,124.36h27.74a12.6,12.6,0,0,1,12.57,12.56v25.72H97.93a12.6,12.6,0,0,1-12.56-12.57v-15A10.73,10.73,0,0,1,96.1,124.36Z" style="fill: rgb(255, 255, 255); transform-origin: 110.89px 143.5px;" id="elob5m7oglqdi" class="animable"></path><polygon points="136.41 158.97 136.41 169.97 124.91 158.47 136.41 158.97" style="fill: rgb(255, 255, 255); transform-origin: 130.66px 164.22px;" id="elz43k25ek4sq" class="animable"></polygon></g></g><path d="M119.39,136.6c-3.92-3.5-8.5,1.25-8.5,1.25s-4.58-4.75-8.5-1.25c-5.59,5,2.54,14,8.5,15.74C116.85,150.55,125,141.6,119.39,136.6Z" style="fill: rgb(255, 255, 255); transform-origin: 110.894px 143.827px;" id="el4kyntmmngyv" class="animable"></path></g><g id="freepik--Icon--inject-362" class="animable" style="transform-origin: 406.18px 108.17px;"><path d="M406.18,144.5a36.33,36.33,0,1,1,36.33-36.33A36.37,36.37,0,0,1,406.18,144.5Zm0-67.65a31.33,31.33,0,1,0,31.33,31.32A31.36,31.36,0,0,0,406.18,76.85Z" style="fill: #00FF88; transform-origin: 406.18px 108.17px;" id="el64r4o675b87" class="animable"></path><polygon points="406.64 130.01 387.98 112.06 391.44 108.46 405.72 122.19 424.22 93.41 428.43 96.11 406.64 130.01" style="fill: #00FF88; transform-origin: 408.205px 111.71px;" id="elp4qbteaja5h" class="animable"></polygon><g id="ellzr2j3g2voe" class=""><g style="opacity: 0.8; transform-origin: 406.18px 108.17px;" class="animable" id="el42s4o7g2zu"><path d="M406.18,144.5a36.33,36.33,0,1,1,36.33-36.33A36.37,36.37,0,0,1,406.18,144.5Zm0-67.65a31.33,31.33,0,1,0,31.33,31.32A31.36,31.36,0,0,0,406.18,76.85Z" style="fill: rgb(255, 255, 255); transform-origin: 406.18px 108.17px;" id="elypr6dcv9bw" class="animable"></path></g></g><g id="el1rf3zd2w3t" class=""><g style="opacity: 0.5; transform-origin: 408.205px 111.71px;" class="animable" id="elly11gq12bii"><polygon points="406.64 130.01 387.98 112.06 391.44 108.46 405.72 122.19 424.22 93.41 428.43 96.11 406.64 130.01" style="fill: rgb(255, 255, 255); transform-origin: 408.205px 111.71px;" id="eldge6zdcjg2s" class="animable"></polygon></g></g></g><g id="freepik--Device--inject-362" class="animable" style="transform-origin: 279.53px 257.495px;"><path d="M346.91,101.67l-135,.11a15,15,0,0,0-15,15l.24,281.54a15,15,0,0,0,15,15l135-.12a15,15,0,0,0,15-15l-.23-281.54A15,15,0,0,0,346.91,101.67Z" style="fill: rgb(38, 50, 56); transform-origin: 279.53px 257.495px;" id="elkq52elbo6on" class="animable"></path><path d="M346.5,400.8l-133.62.11a5,5,0,0,1-5-5l-.24-278.4a5,5,0,0,1,5-5l133.61-.11a5,5,0,0,1,5,5l.23,278.4A5,5,0,0,1,346.5,400.8Z" style="fill: #00FF88; transform-origin: 279.56px 256.655px;" id="eloawbjdalo8c" class="animable"></path><g id="el5rok6xubi2s"><rect x="262.65" y="381.49" width="34.05" height="11.44" rx="5" style="opacity: 0.1; transform-origin: 279.675px 387.21px;" class="animable" id="elipv27iwvq1q"></rect></g><g id="ell9og89syc9"><rect x="262.59" y="297.6" width="34.05" height="29.25" rx="5" style="opacity: 0.1; transform-origin: 279.615px 312.225px;" class="animable" id="elf8g8kt83kll"></rect></g><g id="elyyfmcdjvpjs"><rect x="220.2" y="297.64" width="34.05" height="29.25" rx="5" style="opacity: 0.1; transform-origin: 237.225px 312.265px;" class="animable" id="elideqoo6r0sn"></rect></g><g id="elpapyzzdq7t9"><rect x="304.98" y="297.57" width="34.05" height="29.25" rx="5" style="opacity: 0.1; transform-origin: 322.005px 312.195px;" class="animable" id="elmi6m4ouboji"></rect></g><g id="el3ehx3r43sl"><rect x="262.62" y="335.24" width="34.05" height="29.25" rx="5" style="opacity: 0.1; transform-origin: 279.645px 349.865px;" class="animable" id="el1yy13w7ge69"></rect></g><g id="elpc2x0vc2ynr"><rect x="220.23" y="335.27" width="34.05" height="29.25" rx="5" style="opacity: 0.1; transform-origin: 237.255px 349.895px;" class="animable" id="elrud6eeucrsi"></rect></g><g id="elqs368zath8"><rect x="305.01" y="335.2" width="34.05" height="29.25" rx="5" style="opacity: 0.1; transform-origin: 322.035px 349.825px;" class="animable" id="elxft4o6ri4n"></rect></g><g id="el9qlb4qy3jj"><path d="M351.44,327.86l-.09-96.8C314.88,272.92,247,351.52,208,396.78a5,5,0,0,0,4.92,4.13l75.25-.06Z" style="fill: rgb(255, 255, 255); opacity: 0.1; transform-origin: 279.72px 315.985px;" class="animable" id="elrd08sn8c02a"></path></g><g id="el64h2fpdx8o"><path d="M207.76,257.56,333.64,112.42l-58.92,0c-15.59,17.83-42.21,48.59-67,77.3Z" style="fill: rgb(255, 255, 255); opacity: 0.1; transform-origin: 270.68px 184.99px;" class="animable" id="el4jnznb9o9yy"></path></g><g id="el7st54y0awh6"><polygon points="207.81 318.18 351.29 152.76 351.26 117.38 207.78 282.8 207.81 318.18" style="fill: rgb(255, 255, 255); opacity: 0.1; transform-origin: 279.535px 217.78px;" class="animable" id="el0gcoogd3h627"></polygon></g><g id="elyf5ca2luhi"><path d="M212.64,112.46H346.26a5,5,0,0,1,5,5v6.3a0,0,0,0,1,0,0H207.64a0,0,0,0,1,0,0v-6.3A5,5,0,0,1,212.64,112.46Z" style="opacity: 0.2; isolation: isolate; transform-origin: 279.45px 118.11px;" class="animable" id="ellgpzuu43lwj"></path></g><g id="elcdx7jer6smc"><path d="M330.71,120.9l-.42-.42-.09-.1-.05,0h0a1.74,1.74,0,0,1-.13-.2h0a2.45,2.45,0,0,1-.32-1.23s0-1.21,0-1.26a2.34,2.34,0,0,0-1.49-2.16s0,0,0-.08h0s0-.05,0-.08h0v-.08a.86.86,0,1,0-1.71,0v.08h0s0,.06,0,.08h0s0,0,0,.07a2.34,2.34,0,0,0-1.49,2.17v1.21a2.49,2.49,0,0,1-.33,1.28h0a2.13,2.13,0,0,1-.17.25l-.09.09-.42.42a.37.37,0,0,0-.08.39.36.36,0,0,0,.33.22h2.34a.85.85,0,0,0,1.48,0h2.34a.36.36,0,0,0,.25-.61Z" style="fill: rgb(255, 255, 255); opacity: 0.6; transform-origin: 327.328px 118.16px;" class="animable" id="el6yyvs4ktxr7"></path></g><g id="ell56ga6t5io"><g style="opacity: 0.6; isolation: isolate; transform-origin: 218.939px 117.86px;" class="animable" id="el303jrabet55"><g id="elmcqtzcxklrp"><rect x="223.17" y="117.86" width="2.17" height="2.9" style="fill: rgb(255, 255, 255); opacity: 0.6; isolation: isolate; transform-origin: 224.255px 119.31px; transform: rotate(179.95deg);" class="animable" id="elb0g4s6emnro"></rect></g><g id="elh8tbjuehp4s"><rect x="219.63" y="116.89" width="2.17" height="3.87" style="fill: rgb(255, 255, 255); opacity: 0.6; isolation: isolate; transform-origin: 220.715px 118.825px; transform: rotate(179.95deg);" class="animable" id="elp00kk8m1kd"></rect></g><g id="el1w7j32qyfaai"><rect x="216.08" y="115.93" width="2.17" height="4.83" style="fill: rgb(255, 255, 255); opacity: 0.6; isolation: isolate; transform-origin: 217.165px 118.345px; transform: rotate(179.95deg);" class="animable" id="elotrgasmlth"></rect></g><g id="eltclbs5esk3b"><rect x="212.54" y="114.96" width="2.17" height="5.8" style="fill: rgb(255, 255, 255); opacity: 0.6; isolation: isolate; transform-origin: 213.625px 117.86px; transform: rotate(179.95deg);" class="animable" id="el7lt3vkjxsz3"></rect></g></g></g><g id="elojl0g6fhlnc"><rect x="335.62" y="116.7" width="1.29" height="2.9" style="fill: rgb(255, 255, 255); opacity: 0.6; isolation: isolate; transform-origin: 336.265px 118.15px;" class="animable" id="el73m96onh1g"></rect></g><g id="eljekopx0x63r"><rect x="336.91" y="115.64" width="10.27" height="5.01" style="fill: rgb(255, 255, 255); opacity: 0.6; isolation: isolate; transform-origin: 342.045px 118.145px; transform: rotate(179.95deg);" class="animable" id="elu26gez7hfw"></rect></g><path d="M286.93,112.46a7.49,7.49,0,1,1-7.49-7.48A7.49,7.49,0,0,1,286.93,112.46Z" style="fill: rgb(38, 50, 56); transform-origin: 279.44px 112.47px;" id="eljm391ohkuci" class="animable"></path><g id="el9ynewi4111k"><path d="M283.31,112.46a3.87,3.87,0,1,1-3.87-3.86A3.87,3.87,0,0,1,283.31,112.46Z" style="fill: rgb(224, 224, 224); opacity: 0.1; transform-origin: 279.44px 112.47px;" class="animable" id="elxasvqcznudj"></path></g><path d="M284.19,118.35s6.06-5.9,17.38-5.91l-17.39-1Z" style="fill: rgb(38, 50, 56); transform-origin: 292.875px 114.895px;" id="el3kh65xehqwm" class="animable"></path><path d="M274.72,118.36s-6.08-5.89-17.4-5.88l17.39-1Z" style="fill: rgb(38, 50, 56); transform-origin: 266.02px 114.92px;" id="elaeqwe8qz26i" class="animable"></path><g id="elyqt72ohtb4p"><rect x="227.32" y="157.13" width="115.68" height="167.47" rx="10" style="opacity: 0.3; transform-origin: 285.16px 240.865px;" class="animable" id="elxj21yhdlyz"></rect></g><rect x="223.95" y="150.01" width="115.68" height="167.47" rx="10" style="fill: rgb(255, 255, 255); transform-origin: 281.79px 233.745px;" id="el8may2wf2a69" class="animable"></rect><path d="M323.05,170.82a7.18,7.18,0,1,1,7.18-7.18A7.19,7.19,0,0,1,323.05,170.82Zm0-13a5.87,5.87,0,1,0,5.87,5.87A5.87,5.87,0,0,0,323.05,157.77Z" style="fill: rgb(224, 224, 224); transform-origin: 323.05px 163.64px;" id="el1zcsge64pei" class="animable"></path><g id="eleak3eua8u69"><rect x="319.3" y="162.99" width="7.5" height="1.3" style="fill: rgb(224, 224, 224); transform-origin: 323.05px 163.64px; transform: rotate(-45deg);" class="animable" id="elis37kbe9rqr"></rect></g><g id="elvzbd7ubh1f9"><rect x="322.4" y="159.89" width="1.3" height="7.5" style="fill: rgb(224, 224, 224); transform-origin: 323.05px 163.64px; transform: rotate(-45deg);" class="animable" id="elvrutij768vj"></rect></g><path d="M306.65,313H258a10,10,0,0,1-10-10h0a10,10,0,0,1,10-10h48.65a10,10,0,0,1,10,10h0A10,10,0,0,1,306.65,313Z" style="fill: rgb(224, 224, 224); transform-origin: 282.325px 303px;" id="elbxs56s783vm" class="animable"></path><path d="M305.58,311.17H256.93a10,10,0,0,1-10-10h0a10,10,0,0,1,10-10h48.65a10,10,0,0,1,10,10h0A10,10,0,0,1,305.58,311.17Z" style="fill: #00FF88; transform-origin: 281.255px 301.17px;" id="el75w9ofmjk6s" class="animable"></path><text transform="translate(258.78 305.14)" style="font-size:11px;fill:#fff;font-family:Montserrat-Bold, Montserrat;font-weight:700"><tspan style="letter-spacing:-0.018998579545454544em">A</tspan><tspan x="8.29" y="0" style="letter-spacing:-0.011985085227272728em">C</tspan><tspan x="15.77" y="0">CEPT</tspan></text><rect x="251.87" y="257.61" width="55.39" height="3" style="fill: rgb(224, 224, 224); transform-origin: 279.565px 259.11px;" id="elbbyp6aqqglr" class="animable"></rect><rect x="251.84" y="278.16" width="55.39" height="3" style="fill: rgb(245, 245, 245); transform-origin: 279.535px 279.66px;" id="elmsctad48crk" class="animable"></rect><rect x="240.58" y="264.95" width="77.98" height="5" style="fill: rgb(224, 224, 224); transform-origin: 279.57px 267.45px;" id="el58k0zilyoy" class="animable"></rect></g><g id="freepik--character-2--inject-362" class="animable" style="transform-origin: 270.505px 202.336px;"><circle cx="279.57" cy="209.37" r="43.16" style="fill: #00FF88; transform-origin: 279.57px 209.37px;" id="elzd3at7ito2n" class="animable"></circle><g id="elphdh1aky06"><circle cx="279.57" cy="209.37" r="43.16" style="fill: rgb(255, 255, 255); opacity: 0.6; transform-origin: 279.57px 209.37px;" class="animable" id="ele4rt34x9r8"></circle></g><path d="M229.7,226.71s-2.33-1.15-3.42-.75-8,7.88-8,8.87,4.46,1.45,5.88,1,6.37-6.17,6.61-6.75Z" style="fill: rgb(255, 195, 189); transform-origin: 224.525px 230.939px;" id="ellvq27eb446m" class="animable"></path><path d="M226.83,229.47s-2.48-1.11-2.7-2.15c-.15-.73-2.47,0-3.07-.47s-.41-.69-.41-.69c2.93-.53,5.33-2.17,9.13.45Z" style="fill: rgb(255, 195, 189); transform-origin: 225.201px 227.318px;" id="el693vg54ksp8" class="animable"></path><path d="M230.44,230.94a116.77,116.77,0,0,0,21.56-.53c6.48-1.09,10.3-16.58,10.3-16.58s15.86-30.64-.46-19.73c-2.82,1.53-8.1,11.2-10.28,18.77S249.1,221.48,247,222c-.91.23-15.79,2.67-18.31,3.15Z" style="fill: #00FF88; transform-origin: 248.952px 211.48px;" id="el2q1hu720x2l" class="animable"></path><g id="elds9pvukv7wr"><g style="opacity: 0.3; transform-origin: 248.952px 211.48px;" class="animable" id="elr8h7g1n4hqi"><path d="M230.44,230.94a116.77,116.77,0,0,0,21.56-.53c6.48-1.09,10.3-16.58,10.3-16.58s15.86-30.64-.46-19.73c-2.82,1.53-8.1,11.2-10.28,18.77S249.1,221.48,247,222c-.91.23-15.79,2.67-18.31,3.15Z" id="elz9zow3fj3ye" class="animable" style="transform-origin: 248.952px 211.48px;"></path></g></g><g id="elf9fqiob7cmj"><path d="M258.54,223.88a51.41,51.41,0,0,0,3.76-10l.19-.36-2.94-5.11Z" style="opacity: 0.5; transform-origin: 260.515px 216.145px;" class="animable" id="elh1cqxgz3pug"></path></g><path d="M299.28,247.76c-1.37-12.08-4.89-43.45-5.3-50.77-.52-9.1-6-9.91-17.6-8.43s-14.72,6.28-17.12,13.09c-2.32,6.56,4.09,21,6.73,48.69a43.14,43.14,0,0,0,33.29-2.58Z" style="fill: #00FF88; transform-origin: 279.022px 220.252px;" id="elf2xy8ebxmn7" class="animable"></path><g id="elqtz5xv1ql07"><path d="M299.28,247.76c-1.37-12.08-4.89-43.45-5.3-50.77-.52-9.1-6-9.91-17.6-8.43s-14.72,6.28-17.12,13.09c-2.32,6.56,4.09,21,6.73,48.69a43.14,43.14,0,0,0,33.29-2.58Z" style="opacity: 0.3; transform-origin: 279.022px 220.252px;" class="animable" id="elkf3gqrr3b6"></path></g><path d="M276.5,175c0,4.65.34,11.39,4,13.62,0,0,.69,4.59-10.81,12.51-5.7-5.43-2.89-9.19-2.89-9.19,4.7-2.38,4.18-4.37,2.68-7.63Z" style="fill: rgb(255, 195, 189); transform-origin: 273.308px 188.065px;" id="ely4q6hv1emwh" class="animable"></path><g id="elidslq447fyj"><path d="M273.63,178.72l-4.12,5.55a14.73,14.73,0,0,1,.88,2.35c1.83-.72,4.47-3.06,4.48-5.22A5.9,5.9,0,0,0,273.63,178.72Z" style="opacity: 0.2; isolation: isolate; transform-origin: 272.19px 182.67px;" class="animable" id="el47zmk5j5d3r"></path></g><path d="M280.8,165.93c-.6,7.78-.7,11.08-4.6,15.17-5.86,6.16-15,4.13-16.71-3.56-1.5-6.94-.26-18.54,7.22-21.8a9.88,9.88,0,0,1,13.42,5.39A10.67,10.67,0,0,1,280.8,165.93Z" style="fill: rgb(255, 195, 189); transform-origin: 269.888px 169.763px;" id="elncpjuu6h64n" class="animable"></path><path d="M268.68,168.31c0,.63-.35,1.15-.75,1.17s-.72-.5-.72-1.13.36-1.16.75-1.17S268.66,167.71,268.68,168.31Z" style="fill: rgb(38, 50, 56); transform-origin: 267.945px 168.33px;" id="el7ea7g33iki9" class="animable"></path><path d="M261.71,168.52c0,.64-.35,1.16-.75,1.17s-.72-.5-.72-1.13.36-1.15.76-1.16S261.72,167.89,261.71,168.52Z" style="fill: rgb(38, 50, 56); transform-origin: 260.975px 168.545px;" id="el8bfsfhvugno" class="animable"></path><path d="M263.84,169.6a18.57,18.57,0,0,1-2.28,4.11,2.62,2.62,0,0,0,2.2.36Z" style="fill: rgb(237, 137, 62); transform-origin: 262.7px 171.885px;" id="eldr0wofls3xo" class="animable"></path><path d="M267.07,176.44a5.51,5.51,0,0,1-.91.1.17.17,0,0,1-.18-.17h0a.21.21,0,0,1,.19-.19,5.1,5.1,0,0,0,4-2.07.17.17,0,0,1,.25-.06.17.17,0,0,1,.05.25A5.29,5.29,0,0,1,267.07,176.44Z" style="fill: rgb(38, 50, 56); transform-origin: 268.242px 175.279px;" id="eltar09lmqgs" class="animable"></path><path d="M271.51,166.79a.34.34,0,0,1-.38-.19,4,4,0,0,0-2.87-1.78.37.37,0,0,1-.31-.42.38.38,0,0,1,.41-.32h0a4.64,4.64,0,0,1,3.42,2.18.38.38,0,0,1-.17.49h0A.21.21,0,0,1,271.51,166.79Z" style="fill: rgb(38, 50, 56); transform-origin: 269.879px 165.438px;" id="el9xyh8a6dt3o" class="animable"></path><path d="M259.68,165.28a.36.36,0,0,1-.35-.12.4.4,0,0,1,.06-.53,3.59,3.59,0,0,1,3.27-.88.34.34,0,0,1,.24.43v0a.37.37,0,0,1-.45.25h0a3,3,0,0,0-2.55.73A.4.4,0,0,1,259.68,165.28Z" style="fill: rgb(38, 50, 56); transform-origin: 261.086px 164.472px;" id="elzrl3kzjml9s" class="animable"></path><g id="eljovnmozk2za"><path d="M294.07,198.31l-3.37-1.22-3,3.11,8,14.63C294.93,207.86,294.32,201.72,294.07,198.31Z" style="opacity: 0.5; transform-origin: 291.7px 205.96px;" class="animable" id="eloi3l7rxt8dq"></path></g><path d="M302.26,234.94l-2.14,4.79s-5,2.48-5.64,4.18-3.35,5.52-.31,6.45a6.36,6.36,0,0,0,7.54-2.66c1.58-2.56,2.2-4.16,2.12-5.37l3.43-6.16Z" style="fill: rgb(255, 195, 189); transform-origin: 300.008px 242.833px;" id="elbpfu21ire28" class="animable"></path><path d="M266.08,153.26c-2.4.82-10.33,4.91-5.22,9.71,0,0,5.49-2,9.15,0,0,0-.61-3.84,2.17-4.59,0,0-3,5,1.8,8.5s2,6.41,2,6.41,2,.39,2.83-2.91c0,0,1.73,2.6,2.06,2.05C294.26,150,272.71,151,266.08,153.26Z" style="fill: rgb(38, 50, 56); transform-origin: 272.174px 162.723px;" id="eld7x1d2z2wwa" class="animable"></path><path d="M282.75,171.85a5.92,5.92,0,0,1-2.81,3.25c-1.75.88-2.91-.59-2.67-2.45.23-1.67,1.41-4.15,3.28-4.29a2.35,2.35,0,0,1,2.44,2.41A2.54,2.54,0,0,1,282.75,171.85Z" style="fill: rgb(255, 195, 189); transform-origin: 280.115px 171.86px;" id="elvyk0sbufskr" class="animable"></path><path d="M286.38,188.11s8.29.07,20.05,19.8,0,31.09,0,31.09l-5.33-3.5s3.56-9.31,1.93-13.8S294.16,208,294.16,208,276.48,189.42,286.38,188.11Z" style="fill: #00FF88; transform-origin: 297.513px 213.555px;" id="el5eze4tr42cs" class="animable"></path><g id="elgja5a0gf3oi"><g style="opacity: 0.3; transform-origin: 297.513px 213.555px;" class="animable" id="eljtp5a3zqz9g"><path d="M286.38,188.11s8.29.07,20.05,19.8,0,31.09,0,31.09l-5.33-3.5s3.56-9.31,1.93-13.8S294.16,208,294.16,208,276.48,189.42,286.38,188.11Z" id="eluvhlsv5caeq" class="animable" style="transform-origin: 297.513px 213.555px;"></path></g></g></g><g id="freepik--character-1--inject-362" class="animable animator-active" style="transform-origin: 184.31px 284.587px;"><polygon points="199.75 204.5 201.43 200.56 205.24 201.65 202.87 206.94 199.75 204.5" style="fill: rgb(228, 137, 123); transform-origin: 202.495px 203.75px;" id="el713wi0v7edn" class="animable"></polygon><path d="M204.18,202.56s2.45-.89,2.91-1.95,1.09-8.27.35-8.93-5,.46-5.67,1.78-.87,7.39-.61,8Z" style="fill: rgb(228, 137, 123); transform-origin: 204.415px 197.022px;" id="elum9tnwlel7c" class="animable"></path><path d="M160.19,157.46s5-6.43,13.94-3.14,9.8,16.84,8.68,23.82-2.16,18.1-.71,19.22c0,0-6.94,1.89-11.25-1.13s-4.1-15.57-4.1-15.57l1.7-6.5Z" style="fill: rgb(38, 50, 56); transform-origin: 171.694px 175.663px;" id="el9ttx52a8kv" class="animable"></path><polygon points="174.79 393.86 174.55 407.25 181.6 406.82 182.46 394.7 174.79 393.86" style="fill: rgb(255, 181, 115); transform-origin: 178.505px 400.555px;" id="el2ezk9h0a2t" class="animable"></polygon><path d="M182.87,406l-8.89-.16a.71.71,0,0,0-.71.54l-1.74,7.21a1.19,1.19,0,0,0,.87,1.44l.25,0c3.2,0,6.06-.13,10-.05,4.71.09,3.5.63,9,.81,3.33.1,4-3.68,2.6-3.89-6.46-.93-7.1-2.9-9.55-5.26A2.83,2.83,0,0,0,182.87,406Z" style="fill: rgb(38, 50, 56); transform-origin: 183.217px 410.816px;" id="elwcoyekpocu8" class="animable"></path><g id="ely86txhhvlgh"><polygon points="174.75 395.97 174.66 400.99 182 401.22 182.28 397.19 174.75 395.97" style="opacity: 0.2; transform-origin: 178.47px 398.595px;" class="animable" id="elxz3j02urz7"></polygon></g><polygon points="143.37 391.51 141.63 404.78 148.67 405.15 150.9 393.2 143.37 391.51" style="fill: rgb(255, 181, 115); transform-origin: 146.265px 398.33px;" id="elrp6jdem8h" class="animable"></polygon><path d="M150,404.45l-8.82-1.15a.7.7,0,0,0-.76.46l-2.54,7a1.2,1.2,0,0,0,.7,1.54,1,1,0,0,0,.25.06c3.18.36,6,.56,10,1.08,4.67.62,3.41,1,8.89,1.82,3.3.48,4.4-3.2,3-3.57-6.31-1.65-6.72-3.68-8.9-6.3A2.86,2.86,0,0,0,150,404.45Z" style="fill: rgb(38, 50, 56); transform-origin: 149.56px 409.298px;" id="elcs0m3sjars" class="animable"></path><g id="eluicqr0ob53f"><polygon points="143.09 393.6 142.44 398.58 149.7 399.63 150.44 395.66 143.09 393.6" style="opacity: 0.2; transform-origin: 146.44px 396.615px;" class="animable" id="elxa3u0q5umga"></polygon></g><path d="M184.38,242.77s7.75,62.85,6.2,75.25-7.23,81.11-7.23,81.11h-9.82s-3.44-59.24,0-82.48c0,0-9.13-53.39-8.09-66.82S183.77,238.31,184.38,242.77Z" style="fill: rgb(38, 50, 56); transform-origin: 178.071px 319.289px;" id="el9mlft9byvru" class="animable"></path><g id="elmuzqf448yl"><path d="M172.07,307.78c2.17-21-2.39-44.86-2.39-44.86l-3.14,5.54C168,281.71,170.49,298,172.07,307.78Z" style="opacity: 0.3; transform-origin: 169.598px 285.35px;" class="animable" id="el5f6t5rnco9"></path></g><path d="M170.39,272c0,18.64-.18,40.88-1.81,47.57-3,12.13-17.51,77.71-17.51,77.71l-9.75-1.13s4.4-57.33,10.49-80c0,0-1.29-21.46-1.42-41.28,0,0-5.85-16,1.58-36,0,0,16.58-4.7,21.85,2C173.82,240.77,170.38,264,170.39,272Z" style="fill: rgb(38, 50, 56); transform-origin: 157.57px 317.274px;" id="eli652ggm9wd" class="animable"></path><path d="M178,194.5s6.89.58,10.67,12.53,2.81,10.16,2.81,10.16l8-14.38,5.14,2.53s-7.83,24.38-12.36,28.73-11.36-5-11.62-6.68S179,205.22,179,205.22Z" style="fill: #00FF88; transform-origin: 191.31px 214.856px;" id="elwierkpnxrqj" class="animable"></path><g id="elafrep1h9uf"><path d="M178,194.5s6.89.58,10.67,12.53,2.81,10.16,2.81,10.16l8-14.38,5.14,2.53s-7.83,24.38-12.36,28.73-11.36-5-11.62-6.68S179,205.22,179,205.22Z" style="opacity: 0.1; transform-origin: 191.31px 214.856px;" class="animable" id="elsfwm9tod3oq"></path></g><path d="M160.19,158s-6-1.44-7.56,13.47c-1.77,16.66,3.46,27.8,13.51,27.7,0,0-1.59-12.85-.8-16.73s-1.53-20.68-1.53-20.68Z" style="fill: rgb(38, 50, 56); transform-origin: 159.215px 178.566px;" id="elzj1thktw71" class="animable"></path><path d="M185,250l-35.74-1.33c.14-9.16,2.64-31.49,1.79-36.11-.45-2.47-.95-5.12-1.52-8-.43-2.16-.89-4.46-1.41-6.89a74.81,74.81,0,0,1,12.66-2.84A77.76,77.76,0,0,1,174.3,194a24.37,24.37,0,0,1,2.87.32c3.41.58,6.14,3.6,7,7.66.4,1.79.82,4,1.18,6.57C186.35,215.37,188,223.84,185,250Z" style="fill: #00FF88; transform-origin: 167.416px 221.987px;" id="eliov0dojfug" class="animable"></path><g id="el7ecwej0k1vb"><g style="opacity: 0.2; transform-origin: 167.416px 221.987px;" class="animable" id="el81nkri42b6v"><path d="M185,250l-35.74-1.33c.14-9.16,2.64-31.49,1.79-36.11-.45-2.47-.95-5.12-1.52-8-.43-2.16-.89-4.46-1.41-6.89a74.81,74.81,0,0,1,12.66-2.84A77.76,77.76,0,0,1,174.3,194a24.37,24.37,0,0,1,2.87.32c3.41.58,6.14,3.6,7,7.66.4,1.79.82,4,1.18,6.57C186.35,215.37,188,223.84,185,250Z" id="elokcki32w429" class="animable" style="transform-origin: 167.416px 221.987px;"></path></g></g><path d="M171.38,199.13c-7.3-1.44-9.3-4.73-9.3-4.73,5-4.1,1.61-12,1.61-12l8.75,2.25a27.28,27.28,0,0,0-.6,3.71c-.43,5.38,2,5.6,2,5.6C175.2,197,171.38,199.13,171.38,199.13Z" style="fill: rgb(228, 137, 123); transform-origin: 168.106px 190.765px;" id="el8ut9cgyloxp" class="animable"></path><g id="el6ihsijv4yqg"><path d="M172.44,184.65a27.28,27.28,0,0,0-.6,3.71c-6-.4-8.15-6-8.15-6Z" style="opacity: 0.2; isolation: isolate; transform-origin: 168.065px 185.36px;" class="animable" id="el2rwxf969ss9"></path></g><path d="M169.22,159.52c7.74.1,10.17,4.28,10.64,12.26.58,10-1.72,17-11.37,14.77C155.39,183.49,156.37,159.36,169.22,159.52Z" style="fill: rgb(228, 137, 123); transform-origin: 169.528px 173.243px;" id="el27mhm3p0uai" class="animable"></path><path d="M174.3,171.28a16,16,0,0,0,2.21,3.24,2.14,2.14,0,0,1-2,.85Z" style="fill: rgb(222, 87, 83); transform-origin: 175.405px 173.334px;" id="el0nyan3aipjj" class="animable"></path><path d="M170.12,166a4,4,0,0,0-3.37,1.13" style="fill: none; stroke: rgb(38, 50, 56); stroke-linecap: round; stroke-linejoin: round; stroke-width: 0.616569px; transform-origin: 168.435px 166.546px;" id="el99hjq5m8s7s" class="animable"></path><path d="M175.4,165.56a3.61,3.61,0,0,1,3.08.68" style="fill: none; stroke: rgb(38, 50, 56); stroke-linecap: round; stroke-linejoin: round; stroke-width: 0.616569px; transform-origin: 176.94px 165.85px;" id="elqkv2guefnlo" class="animable"></path><path d="M160.59,172.46s5.59-5.6,5.11-10.51c0,0,13.52-6.79,14.08,8.79,0,0,1.68-13.8-11.62-14.28s-13.49,19-6.7,24.86C161.46,181.32,158.31,176.4,160.59,172.46Z" style="fill: rgb(38, 50, 56); transform-origin: 168.45px 168.886px;" id="elbjacko0ph4g" class="animable"></path><path d="M161.84,174.1a3.4,3.4,0,0,0-3.62-3.14c-2.4.23-3.6,5.13,2.34,6.39C161.42,177.54,161.91,176.71,161.84,174.1Z" style="fill: rgb(228, 137, 123); transform-origin: 159.047px 174.164px;" id="elfkfcaina8ge" class="animable"></path><path d="M176.74,178a19.91,19.91,0,0,0,.07,2.84l-.48.13c-2.19.56-3.4.09-4.06-.59a2.86,2.86,0,0,1-.68-1.21,2.55,2.55,0,0,1-.13-.78,10.5,10.5,0,0,0,4.53-.21C176.45,178.05,176.74,178,176.74,178Z" style="fill: rgb(38, 50, 56); transform-origin: 174.135px 179.609px;" id="el7o45tawn8cv" class="animable"></path><path d="M176,178.14V179c-1.86.52-3.56.61-4.37.15a3.08,3.08,0,0,1-.15-.78A10.3,10.3,0,0,0,176,178.14Z" style="fill: rgb(255, 255, 255); transform-origin: 173.74px 178.794px;" id="elei9huur8cn9" class="animable"></path><path d="M176.33,180.93c-2.19.56-3.4.09-4.06-.59a6.93,6.93,0,0,1,2.55-.14A2.69,2.69,0,0,1,176.33,180.93Z" style="fill: rgb(222, 87, 83); transform-origin: 174.3px 180.66px;" id="elhcrm9ua6qfn" class="animable"></path><path d="M178.72,169.53a1.57,1.57,0,0,0-2.46.44" style="fill: none; stroke: rgb(38, 50, 56); stroke-linecap: round; stroke-linejoin: round; stroke-width: 0.425407px; transform-origin: 177.49px 169.543px;" id="eluae6th5fdqc" class="animable"></path><path d="M172.11,170.15a2.43,2.43,0,0,0-3.8.8" style="fill: none; stroke: rgb(38, 50, 56); stroke-linecap: round; stroke-linejoin: round; stroke-width: 0.425407px; transform-origin: 170.21px 170.25px;" id="elk4ug5l2jab" class="animable"></path><path d="M163.81,161.23s8.39,3.61,14.49,2.52-5.26-6.33-5.26-6.33l-5.81-.39Z" style="fill: rgb(38, 50, 56); transform-origin: 171.955px 160.493px;" id="elrv3odx45hw" class="animable"></path><path d="M165.85,160.51a3.07,3.07,0,0,1,.36.89,8.33,8.33,0,0,1,.17.84,9.35,9.35,0,0,1,.08,1.67,13.47,13.47,0,0,1-.54,3.23,18.85,18.85,0,0,1-1.21,3c-.24.48-.52.94-.78,1.42l-.86,1.36.77-1.42c.22-.48.47-1,.67-1.45a18.25,18.25,0,0,0,1-3,12.68,12.68,0,0,0,.32-3.12,9.81,9.81,0,0,0-.18-1.54c-.06-.25-.12-.5-.2-.73a3.15,3.15,0,0,0-.26-.59Z" style="fill: rgb(38, 50, 56); transform-origin: 164.769px 166.715px;" id="elmo5d63wxgu" class="animable"></path><path d="M165.06,160.65c.36.28.55.5.82.74s.5.46.76.68a14.63,14.63,0,0,0,1.63,1.21,9.38,9.38,0,0,0,3.8,1.46,9.64,9.64,0,0,1-4-1.08,16.67,16.67,0,0,1-1.82-1.07c-.29-.2-.57-.41-.85-.62s-.58-.45-.78-.57Z" style="fill: rgb(38, 50, 56); transform-origin: 168.345px 162.695px;" id="el3vmas6qcb8l" class="animable"></path><path d="M217.58,230s1.58-2.07,2.74-2.2,10,1.22,10.46,2.12-3.77,4.84-5.23,5.1-6.82-.42-7.29-.84Z" style="fill: rgb(228, 137, 123); transform-origin: 224.197px 231.434px;" id="eln1t5z5zo1z" class="animable"></path><path d="M221.39,231.22s1.9-1.16,1.63-2.19c-.2-.72,1.48.45,1.83-.21s-.75-2.06-.75-2.06c-1.29-.17-4.13.15-6.63,3.21Z" style="fill: rgb(228, 137, 123); transform-origin: 221.194px 228.972px;" id="elpvld4xjs7hl" class="animable"></path><path d="M217.6,230l-5.51,1.87s.68,4.55,1,4.43l6.92-2.79Z" style="fill: rgb(228, 137, 123); transform-origin: 216.05px 233.151px;" id="eld79u6b1805a" class="animable"></path><path d="M148.47,197.5s-4.66,2.12-3.51,9.39c1.85,11.8,32,36.48,37.77,36.79s33.41-6.76,33.46-7.23-1.68-6.44-1.68-6.44-27.09,2.77-31,1S160,196.63,148.47,197.5Z" style="fill: #00FF88; transform-origin: 180.484px 220.586px;" id="el0ilvkusk8fr8" class="animable"></path><g id="elwp1i23b237"><path d="M148.47,197.5s-4.66,2.12-3.51,9.39c1.85,11.8,32,36.48,37.77,36.79s33.41-6.76,33.46-7.23-1.68-6.44-1.68-6.44-27.09,2.77-31,1S160,196.63,148.47,197.5Z" style="opacity: 0.1; transform-origin: 180.484px 220.586px;" class="animable" id="elf7uzog05yhf"></path></g></g><defs>     <filter id="active" height="200%">         <feMorphology in="SourceAlpha" result="DILATED" operator="dilate" radius="2"></feMorphology>                <feFlood flood-color="#32DFEC" flood-opacity="1" result="PINK"></feFlood>        <feComposite in="PINK" in2="DILATED" operator="in" result="OUTLINE"></feComposite>        <feMerge>            <feMergeNode in="OUTLINE"></feMergeNode>            <feMergeNode in="SourceGraphic"></feMergeNode>        </feMerge>    </filter>    <filter id="hover" height="200%">        <feMorphology in="SourceAlpha" result="DILATED" operator="dilate" radius="2"></feMorphology>                <feFlood flood-color="#ff0000" flood-opacity="0.5" result="PINK"></feFlood>        <feComposite in="PINK" in2="DILATED" operator="in" result="OUTLINE"></feComposite>        <feMerge>            <feMergeNode in="OUTLINE"></feMergeNode>            <feMergeNode in="SourceGraphic"></feMergeNode>        </feMerge>            <feColorMatrix type="matrix" values="0   0   0   0   0                0   1   0   0   0                0   0   0   0   0                0   0   0   1   0 "></feColorMatrix>    </filter></defs></svg>